<?xml version="1.0" encoding="UTF-8" standalone="no"?>
<!-- Created with Inkscape (http://www.inkscape.org/) -->

<svg
   xmlns:dc="http://purl.org/dc/elements/1.1/"
   xmlns:cc="http://creativecommons.org/ns#"
   xmlns:rdf="http://www.w3.org/1999/02/22-rdf-syntax-ns#"
   xmlns:svg="http://www.w3.org/2000/svg"
   xmlns="http://www.w3.org/2000/svg"
   xmlns:sodipodi="http://sodipodi.sourceforge.net/DTD/sodipodi-0.dtd"
   xmlns:inkscape="http://www.inkscape.org/namespaces/inkscape"
   width="744.09448819"
   height="1052.3622047"
   id="svg2"
   version="1.1"
   inkscape:version="0.48.5 r10040"
   sodipodi:docname="New document 1">
  <defs
     id="defs4" />
  <sodipodi:namedview
     id="base"
     pagecolor="#ffffff"
     bordercolor="#666666"
     borderopacity="1.0"
     inkscape:pageopacity="0.0"
     inkscape:pageshadow="2"
     inkscape:zoom="1.4"
     inkscape:cx="183.50723"
     inkscape:cy="573.43044"
     inkscape:document-units="px"
     inkscape:current-layer="layer1"
     showgrid="false"
     inkscape:window-width="1865"
     inkscape:window-height="1352"
     inkscape:window-x="0"
     inkscape:window-y="1"
     inkscape:window-maximized="0" />
  <metadata
     id="metadata7">
    <rdf:RDF>
      <cc:Work
         rdf:about="">
        <dc:format>image/svg+xml</dc:format>
        <dc:type
           rdf:resource="http://purl.org/dc/dcmitype/StillImage" />
        <dc:title></dc:title>
      </cc:Work>
    </rdf:RDF>
  </metadata>
  <g
     inkscape:label="Layer 1"
     inkscape:groupmode="layer"
     id="layer1">
    <path
       sodipodi:type="arc"
       style="fill:#320000;fill-opacity:1;stroke:#000000;stroke-opacity:1"
       id="path3812-9-2"
       sodipodi:cx="80.35714"
       sodipodi:cy="794.86218"
       sodipodi:rx="26.071428"
       sodipodi:ry="14.642858"
       d="m 106.42857,794.86218 a 26.071428,14.642858 0 1 1 -52.142859,0 26.071428,14.642858 0 1 1 52.142859,0 z"
       transform="matrix(-1.0177367,-0.84197196,1.3745401,-4.1903466,-794.35896,4312.9116)" />
    <path
       sodipodi:type="arc"
       style="fill:#320000;fill-opacity:1;stroke:#000000;stroke-opacity:1"
       id="path3812-9"
       sodipodi:cx="80.35714"
       sodipodi:cy="794.86218"
       sodipodi:rx="26.071428"
       sodipodi:ry="14.642858"
       d="m 106.42857,794.86218 a 26.071428,14.642858 0 1 1 -52.142859,0 26.071428,14.642858 0 1 1 52.142859,0 z"
       transform="matrix(-1.0177367,0.84197196,1.3745401,4.1903466,-529.35899,-2483.866)" />
    <path
       sodipodi:type="arc"
       style="fill:#320000;fill-opacity:1;stroke:#000000;stroke-opacity:1"
       id="path3812"
       sodipodi:cx="80.35714"
       sodipodi:cy="794.86218"
       sodipodi:rx="26.071428"
       sodipodi:ry="14.642858"
       d="m 106.42857,794.86218 a 26.071428,14.642858 0 1 1 -52.142859,0 26.071428,14.642858 0 1 1 52.142859,0 z"
       transform="matrix(1.1030814,0.4115402,-0.91177894,2.4439081,1148.5982,-1830.4209)" />
    <path
       sodipodi:type="arc"
       style="fill:#320000;fill-opacity:1;stroke:#000000;stroke-opacity:1"
       id="path3812-5"
       sodipodi:cx="80.35714"
       sodipodi:cy="794.86218"
       sodipodi:rx="26.071428"
       sodipodi:ry="14.642858"
       d="m 106.42857,794.86218 a 26.071428,14.642858 0 1 1 -52.142859,0 26.071428,14.642858 0 1 1 52.142859,0 z"
       transform="matrix(-1.1030814,0.4115402,0.91177894,2.4439081,-451.09813,-1825.421)" />
    <path
       style="fill:#ff0f0f;stroke:#000000;stroke-width:4;stroke-linecap:butt;stroke-linejoin:miter;stroke-opacity:1;fill-opacity:1;stroke-miterlimit:4;stroke-dasharray:none"
       d="m 401.53564,431.62345 64.64976,-299.00516 85.86297,26.26397 -100.0051,374.76659 -6.06092,121.21831 87.88328,275.77164 -95.9645,11.11168 -67.68021,-279.81225 -45.96196,-0.50508 -67.68021,279.81225 -95.9645,-11.11168 87.88328,-275.77164 -6.06092,-121.21831 -100.0051,-374.76659 85.86297,-26.26397 64.64976,299.00516 z"
       id="path2985-5"
       inkscape:connector-curvature="0"
       sodipodi:nodetypes="ccccccccccccccccc" />
    <path
       style="fill:#ffff00;stroke:#000000;stroke-width:4;stroke-linecap:butt;stroke-linejoin:miter;stroke-opacity:1;fill-opacity:1;stroke-miterlimit:4;stroke-dasharray:none"
       d="m 288.90363,341.21479 -11.11168,-103.03556 22.22336,22.22336 18.18274,-60.60916 21.21321,45.45687 39.39594,-54.54824 -5.05076,62.62946 20.20305,-34.34519 6.06092,40.4061 21.2132,-25.25381 -16.16244,105.05587 z"
       id="path3775"
       inkscape:connector-curvature="0" />
    <path
       sodipodi:type="star"
       style="fill:#ffa2a2;stroke:#000000;stroke-width:6.46322692;stroke-linecap:butt;stroke-linejoin:miter;stroke-opacity:1;fill-opacity:1;stroke-miterlimit:4;stroke-dasharray:none"
       id="path3005"
       sodipodi:sides="5"
       sodipodi:cx="111.11678"
       sodipodi:cy="293.73761"
       sodipodi:r1="138.68919"
       sodipodi:r2="69.344597"
       sodipodi:arg1="1.110406"
       sodipodi:arg2="1.7387245"
       inkscape:flatsided="true"
       inkscape:rounded="0"
       inkscape:randomized="0"
       d="M 172.73609,417.98637 11.990607,390.73603 -11.76587,229.43717 134.2973,156.99933 248.32579,273.52914 z"
       inkscape:transform-center-x="-0.038897315"
       inkscape:transform-center-y="9.3776861"
       transform="matrix(0.53069229,0.11778417,0.08904495,-0.70197302,262.90627,553.75918)" />
    <path
       style="fill:#860000;stroke:#000000;stroke-width:4;stroke-linecap:butt;stroke-linejoin:miter;stroke-opacity:1;fill-opacity:1;stroke-miterlimit:4;stroke-dasharray:none"
       d="m 245.97215,601.07653 c 0,0 62.37691,13.13199 101.77286,13.13199 39.39595,0 101.01526,-13.13199 101.01526,-13.13199 l -2.02031,38.63834 c 0,0 -52.52792,7.82868 -100.76272,7.57614 -44.45757,-0.23276 -97.98479,-9.59645 -97.98479,-9.59645 z"
       id="path3777"
       inkscape:connector-curvature="0"
       sodipodi:nodetypes="csccscc" />
    <text
       xml:space="preserve"
       style="font-size:85.68019103999999686px;font-style:normal;font-weight:normal;line-height:125%;letter-spacing:0px;word-spacing:0px;fill:#000000;fill-opacity:1;stroke:#000000;font-family:Sans;stroke-width:3.99999993;stroke-miterlimit:4;stroke-dasharray:none;stroke-opacity:1"
       x="288.17987"
       y="581.67395"
       id="text3779"
       sodipodi:linespacing="125%"
       transform="scale(0.98552164,1.0146911)"><tspan
         sodipodi:role="line"
         id="tspan3781"
         x="288.17987"
         y="581.67395"
         style="font-size:154.22434997999999950px;font-style:normal;font-variant:normal;font-weight:bold;font-stretch:normal;fill:#ffffff;font-family:Verdana;-inkscape-font-specification:Verdana Bold;stroke-width:3.99999993;stroke-miterlimit:4;stroke-dasharray:none;stroke:#000000;stroke-opacity:1"
         dx="0">H</tspan></text>
    <text
       xml:space="preserve"
       style="font-size:100px;font-style:normal;font-weight:normal;line-height:125%;letter-spacing:0px;word-spacing:0px;fill:#000000;fill-opacity:1;stroke:none;font-family:Sans"
       x="336.25867"
       y="-322.2196"
       id="text3783"
       sodipodi:linespacing="125%"
       transform="matrix(0,1,-1,0,0,0)"><tspan
         sodipodi:role="line"
         id="tspan3785"
         x="336.25867"
         y="-322.2196">,</tspan></text>
    <text
       xml:space="preserve"
       style="font-size:40px;font-style:normal;font-weight:normal;line-height:125%;letter-spacing:0px;word-spacing:0px;fill:#000000;fill-opacity:1;stroke:none;font-family:Sans"
       x="336.41495"
       y="371.58481"
       id="text3783-8"
       sodipodi:linespacing="125%"
       transform="matrix(0,1,1,0,0,0)"><tspan
         sodipodi:role="line"
         id="tspan3785-0"
         x="336.41495"
         y="371.58481"
         style="font-size:100px">,</tspan></text>
    <text
       xml:space="preserve"
       style="font-size:65.4211731px;font-style:normal;font-weight:normal;line-height:125%;letter-spacing:0px;word-spacing:0px;fill:#000000;fill-opacity:1;stroke:none;font-family:Sans"
       x="-423.05911"
       y="351.09879"
       id="text3808"
       sodipodi:linespacing="125%"
       transform="matrix(0.00185112,-0.95006664,1.0525545,0.00167088,0,0)"
       inkscape:transform-center-x="-7.3777951"
       inkscape:transform-center-y="-7.0137389"><tspan
         sodipodi:role="line"
         id="tspan3810"
         x="-423.05911"
         y="351.09879">(</tspan></text>
  </g>
</svg>
